<svg xmlns="http://www.w3.org/2000/svg" viewBox="2.43 2.43 75.14 75.14"><defs><linearGradient id="g" x1="0" y1="0" x2="1" y2="1"><stop offset="0" stop-color="#6B4CF0"></stop><stop offset="1" stop-color="#C24BE0"></stop></linearGradient></defs><g stroke="rgba(255,255,255,0.18)" stroke-width="0.63"><polygon points="40.0,10.0 55.0,25.0 40.0,40.0" fill="url(#g)" fill-opacity="0.72"></polygon><polygon points="55.0,25.0 70.0,40.0 40.0,40.0" fill="url(#g)" fill-opacity="0.80"></polygon><polygon points="70.0,40.0 55.0,55.0 40.0,40.0" fill="url(#g)" fill-opacity="0.92"></polygon><polygon points="55.0,55.0 40.0,70.0 40.0,40.0" fill="url(#g)" fill-opacity="1.00"></polygon><polygon points="40.0,70.0 25.0,55.0 40.0,40.0" fill="url(#g)" fill-opacity="0.92"></polygon><polygon points="25.0,55.0 10.0,40.0 40.0,40.0" fill="url(#g)" fill-opacity="0.80"></polygon><polygon points="10.0,40.0 25.0,25.0 40.0,40.0" fill="url(#g)" fill-opacity="0.72"></polygon><polygon points="25.0,25.0 40.0,10.0 40.0,40.0" fill="url(#g)" fill-opacity="0.80"></polygon></g><circle cx="40.0" cy="10.0" r="2.57" fill="#FFFFFF"></circle><circle cx="70.0" cy="40.0" r="2.57" fill="#FFFFFF"></circle><circle cx="40.0" cy="70.0" r="2.57" fill="#FFFFFF"></circle><circle cx="10.0" cy="40.0" r="2.57" fill="#FFFFFF"></circle><circle cx="55.0" cy="25.0" r="1.71" fill="#C9B8FF"></circle><circle cx="55.0" cy="55.0" r="1.71" fill="#C9B8FF"></circle><circle cx="25.0" cy="55.0" r="1.71" fill="#C9B8FF"></circle><circle cx="25.0" cy="25.0" r="1.71" fill="#C9B8FF"></circle><circle cx="40.0" cy="40.0" r="3.21" fill="#FFFFFF"></circle></svg>